<?xml version="1.0" encoding="utf-8"?>
<!-- Generator: Adobe Illustrator 25.2.3, SVG Export Plug-In . SVG Version: 6.00 Build 0)  -->
<svg version="1.1" id="Layer_1" xmlns="http://www.w3.org/2000/svg" xmlns:xlink="http://www.w3.org/1999/xlink" x="0px" y="0px"
	 viewBox="0 0 1600 448.5" style="enable-background:new 0 0 1600 448.5;background-color:black;" xml:space="preserve">
<style type="text/css">
	.st0{fill:#FFFFFF;}
</style>
<g id="Layer_2_1_">
	<g id="Layer_1-2">
		<path class="st0" d="M85.2,238.7l58.8-59.8c5.5-6,12-11,12-18.4c0-10.5-11-11.5-21.5-11.5h-8.5v-21.9h114.6V149
			c-29.4,2-47.8,15.9-71.2,39.4L141,216.3l64.3,82.7c13.9,17.9,27.9,31.9,51.3,33.4v21.9H141v-22h4.5c4.5,0,17.4,0,17.4-11.5
			c0-6-8-15.4-10.5-18.9l-45.3-56.3l-24.9,25.9v44.8c0,15.5,5.5,16,16.9,16h9v21.9H0v-21.9h21.9c10,0,17.4,0,17.4-15.5V40.4
			c0-9.5-6-11-22.4-11H0V7l82.2-7v238.7H85.2z"/>
		<path class="st0" d="M522.6,336.8c-19.9,17.4-29.4,24.4-49.8,24.4c-29.9,0-37.9-22.9-39.4-38.9h-3c-17.9,25.9-46.3,38.9-80.2,38.9
			c-55.8,0-68.2-32.9-68.2-58.2c0-22.4,12-69.3,148-93.2v-19.5c0-6-0.5-48.3-53.3-48.3c-18.4,0-42.8,8.5-42.8,20.4
			c0,5.5,5,6.5,10.5,11c6,5.5,9,9,9,16.4c0,15.4-11.5,25.4-24.9,25.4c-14.5,0-29.9-10-29.9-27.4c0-27.9,23.9-67.8,85.2-67.8
			c83.2,0,89.2,54.8,89.2,82.2v112.1c0,10,0.5,24.9,17,24.9c9.5,0,14-3.5,23.4-13L522.6,336.8z M430,230.7
			c-43.4,8-96.2,22.9-96.2,64.3c0,20.4,10,44.4,36.4,44.4c26.9,0,59.8-25.4,59.8-71.2V230.7z"/>
		<path class="st0" d="M546,127.1l82.2-7V141l-2.5,25.4h2.5c14-27.9,39.9-46.3,77.2-46.3c63.8,0,66.8,59.8,66.8,79.7v117.1
			c0,15.5,7.5,15.5,17.5,15.5h21.9v21.9H698.5v-21.9h13.5c10,0,17.4,0,17.4-15.5V200.8C729.4,149,705,142,689,142
			c-51.8,0-60.8,76.7-60.8,90.2v84.7c0,15.5,7.5,15.5,17.4,15.5h14v21.9H546v-21.9h21.9c10,0,17.4,0,17.4-15.5V165.4
			c0-15.4-5-16.4-22.4-16.4H546V127.1z"/>
		<path class="st0" d="M942.6,361.2c-71.8,0-114.1-60.8-114.1-120.6s42.3-120.6,114.1-120.6s114.1,60.8,114.1,120.6
			S1014.4,361.2,942.6,361.2z M942.6,339.3c31.9,0,62.3-20.9,62.3-98.7c0-82.7-34.4-98.7-62.3-98.7s-62.3,16-62.3,98.7
			C880.3,318.4,910.7,339.3,942.6,339.3z"/>
		<path class="st0" d="M1155.7,120.1v34.4c22.9-29.9,47.8-34.4,64.3-34.4c73.7,0,106.1,63.3,106.1,124.6
			c0,58.3-39.9,116.6-106.1,116.6c-16.9,0-43.8-3-63.8-36.4h-4l3.5,20.9v60.3c0,15.5,7.5,15.5,17.4,15.5h27.9v21.9h-127.6v-21.9
			h21.9c10,0,17.4,0,17.4-15.5V164.4c0-15.4-7.5-15.4-17.4-15.4h-21.4v-21.9L1155.7,120.1z M1214.9,339.3c21.9,0,59.3-14,59.3-97.7
			c0-86.2-34.9-99.7-59.3-99.7c-25.4,0-59.3,17.4-59.3,100.1C1155.7,309.9,1184.5,339.3,1214.9,339.3L1214.9,339.3z"/>
		<path class="st0" d="M1338.9,127.1H1452V149h-14.4c-15.5,0-16.4,7.5-16.4,11.5c0,6,2,9,4.5,14.4l57.8,133h3l48.8-121.1
			c4.5-10.5,5-16.4,5-20.9c0-15.4-16.4-16.9-25.9-16.9h-12v-21.9h97.7V149h-4.5c-15.4,0-22.4,9.5-28.4,23.4l-95.7,223.2
			c-18.9,43.9-42.3,52.8-67.3,52.8c-31.9,0-43.4-23.9-43.4-37.9c0-17.5,13-28.4,27.4-28.4c13.4,0,24.9,10,24.9,23.9c0,8-4,10-4,15.5
			c0,2,0,6,8.5,6c16.9,0,28.9-26.4,32.4-34.4l13.4-31.9l-86.7-191.8c-7.5-16.4-13-20.4-29.4-20.4h-8.5L1338.9,127.1z"/>
	</g>
</g>
</svg>
