<?xml version="1.0" encoding="UTF-8" standalone="no"?>
<svg
   width="1162px"
   height="286px"
   viewBox="0 0 1162 286"
   version="1.1"
   id="svg18"
   sodipodi:docname="Pluto TV logo.svg"
   inkscape:version="1.1 (c68e22c387, 2021-05-23)"
   xmlns:inkscape="http://www.inkscape.org/namespaces/inkscape"
   xmlns:sodipodi="http://sodipodi.sourceforge.net/DTD/sodipodi-0.dtd"
   xmlns="http://www.w3.org/2000/svg"
   xmlns:svg="http://www.w3.org/2000/svg">
  <defs
     id="defs22" />
  <sodipodi:namedview
     id="namedview20"
     pagecolor="#ffffff"
     bordercolor="#999999"
     borderopacity="1"
     inkscape:pageshadow="0"
     inkscape:pageopacity="0"
     inkscape:pagecheckerboard="0"
     showgrid="false"
     inkscape:zoom="0.91049914"
     inkscape:cx="580.45085"
     inkscape:cy="143.32798"
     inkscape:window-width="1920"
     inkscape:window-height="1057"
     inkscape:window-x="-8"
     inkscape:window-y="-8"
     inkscape:window-maximized="1"
     inkscape:current-layer="svg18" />
  <!-- Generator: Sketch 62 (91390) - https://sketch.com -->
  <title
     id="title2">Artboard</title>
  <desc
     id="desc4">Created with Sketch.</desc>
  <g
     id="Artboard"
     stroke="none"
     stroke-width="1"
     fill="none"
     fill-rule="evenodd">
    <g
       id="PlutoTV_Logo_Hero_RGB_Color"
       fill-rule="nonzero">
      <path
         d="M741.339,45.499 C687.539838,45.499 643.927,89.1118379 643.927,142.911 C643.927,196.710162 687.539838,240.323 741.339,240.323 C795.138162,240.323 838.751,196.710162 838.751,142.911 C838.751,89.1118379 795.138162,45.499 741.339,45.499 L741.339,45.499 Z M741.339,187.65 C716.630333,187.65 696.6,167.619667 696.6,142.911 C696.6,118.202333 716.630333,98.172 741.339,98.172 C766.047667,98.172 786.078,118.202333 786.078,142.911 C786.078,154.776602 781.364791,166.156296 772.974543,174.546543 C764.584296,182.936791 753.204602,187.65 741.339,187.65 L741.339,187.65 Z M585.193,99.378 L585.193,159.7 C585.193,178.2 593.44,186.444 611.937,186.444 L630.575,186.444 L630.575,236.634 L603.451,236.634 C580.894,236.634 562.328,230.017 549.763,217.5 C537.198,204.983 530.575,186.539 530.575,164.127 L530.575,99.378 L496.965,99.378 L496.965,49.188 L530.575,49.188 L530.575,22.067 L585.193,0 L585.193,49.188 L630.575,49.188 L630.575,99.378 L585.193,99.378 Z M475.574502,49.218 L475.574502,151.767 C475.680555,183.476078 458.825124,212.822172 431.381878,228.707551 C403.938632,244.59293 370.096368,244.59293 342.653122,228.707551 C315.209876,212.822172 298.354445,183.476078 298.460498,151.767 L298.460498,73.172 L352.71,51.254 L352.71,153.342 C352.71,172.289785 368.070215,187.65 387.018,187.65 C405.965785,187.65 421.326,172.289785 421.326,153.342 L421.326,71.136 L475.574502,49.218 Z M274.974,0.004 L274.974,236.634 L220.354,236.634 L220.354,22.071 L274.974,0.004 Z M108.279,45.518 C85.458,45.518 66.104,53.231 51.707,67.941 L44.162,49.693 L0,67.535 L0,285.822 L54.609,285.822 L54.609,221.359 C68.815,234.177 87.209,240.313 108.279,240.313 C132.966868,240.430124 156.54165,230.051447 173.127,211.764 C189.717,193.651 198.853,169.264 198.853,143.099 C198.853,88.38 159.069,45.518 108.279,45.518 Z M99.927,187.65 C74.827,187.65 54.475,167.62 54.475,142.911 C54.475,118.202 74.827,98.173 99.927,98.173 C125.027,98.173 145.38,118.203 145.38,142.911 C145.38,167.619 125.032,187.65 99.927,187.65 Z"
         id="Shape"
         fill="#FFFFFF"
         style="fill:#000000;fill-opacity:1" />
      <path
         d="M979.04,142.911 C979.04,66.371 986.235,47.097 986.235,47.097 L963.503,47.559 C909.703,48.659 866.091,89.112 866.091,142.911 C866.091,196.71 909.704,237.164 963.503,238.262 L986.235,238.725 C986.235,238.725 979.04,219.45 979.04,142.911"
         id="Path"
         fill="#FF2CD2" />
      <path
         d="M979.04,142.911 C979.04,81.646 1012.24,46.565 1012.24,46.565 L986.234,47.097 C932.436,48.195 888.827,89.111 888.827,142.911 C888.827,196.711 932.44,237.628 986.239,238.725 L1012.245,239.256 C1012.245,239.256 979.045,204.176 979.045,142.911"
         id="path8"
         fill="#5E00FF" />
      <path
         d="M979.04,142.911 C979.04,73.745 1038.24,46.035 1038.24,46.035 L1012.24,46.565 C958.441,47.664 914.827,89.111 914.827,142.911 C914.827,196.711 958.439,238.158 1012.239,239.256 L1038.24,239.796 C1038.24,239.796 979.039,212.076 979.039,142.911"
         id="path10"
         fill="#FFDE2B" />
      <path
         d="M979.04,142.911 C979.04,97.843 1008.372,51.031 1060.57,45.574 L1038.246,46.035 C984.446,47.135 940.834,89.112 940.834,142.911 C940.834,196.71 984.446,238.689 1038.246,239.796 L1060.646,240.251 C1008.471,234.821 979.04,187.979 979.04,142.911"
         id="path12"
         fill="#FF6700" />
      <path
         d="M1064.242,45.499 C1010.44284,45.499 966.83,89.1118379 966.83,142.911 C966.83,196.710162 1010.44284,240.323 1064.242,240.323 C1118.04116,240.323 1161.654,196.710162 1161.654,142.911 C1161.654,89.1118379 1118.04116,45.499 1064.242,45.499 L1064.242,45.499 Z M1102.709,190.49 L1084.553,190.49 L1058.553,127.609 L1032.481,127.609 L1032.481,160.053 C1032.481,167.04 1035.852,171.377 1043.796,171.377 L1055.327,171.377 L1055.327,190.49 L1041.156,190.49 C1021.93,190.49 1011.635,179.613 1011.635,161.437 L1011.635,127.611 L997.255,127.611 L997.255,109.328 L1011.635,109.328 L1011.635,96.335 L1032.485,87.911 L1032.485,109.328 L1073.527,109.328 L1093.636,161.852 L1113.936,108.828 L1136.478,108.828 L1102.709,190.49 Z"
         id="path14"
         fill="#FFFFFF"
         style="fill:#000000;fill-opacity:1" />
    </g>
  </g>
</svg>
